<svg id="sw-js-blob-svg" viewBox="0 0 100 100" xmlns="http://www.w3.org/2000/svg" width="500" height="500">                    
                        <defs>                         
                        <linearGradient id="sw-gradient" x1="0" x2="1" y1="1" y2="0">                            
                            <stop id="stop1" stop-color="rgba(171, 59, 97, 1)" offset="30%"></stop>                            
                            <stop id="stop2" stop-color="rgba(251, 168, 31, 1)" offset="100%"></stop>                        
                        </linearGradient>                    
                        </defs>                
                        <path fill="url(#sw-gradient)" d="M23.1,-36.1C30.2,-31.2,36.7,-25.5,38.9,-18.4C41.1,-11.4,39,-3,37.6,5.3C36.2,13.6,35.4,21.8,30.9,26.5C26.4,31.3,18.2,32.5,10.5,34.1C2.7,35.6,-4.4,37.5,-10.3,35.6C-16.2,33.7,-20.9,27.9,-26.9,22.4C-33,17,-40.4,12,-41.3,5.9C-42.2,-0.1,-36.6,-7.1,-32.6,-14.6C-28.7,-22,-26.5,-30,-21.4,-35.8C-16.2,-41.6,-8.1,-45.4,-0.1,-45.2C7.9,-45.1,15.9,-41.1,23.1,-36.1Z" width="100%" height="100%" transform="translate(50 50)" stroke-width="0" style="transition: all 0.3s ease 0s;"></path>              
                    </svg>