<svg xmlns="http://www.w3.org/2000/svg" width="115" height="114" viewBox="0 0 115 114" fill="none">
  <g clip-path="url(#clip0_739_852)">
    <path d="M0.937134 105.149V109.476H5.16362V113.3H9.18875V109.476H13.2139V105.149H9.18875V101.224H5.16362V105.149H0.937134Z" stroke="#FECDD6" stroke-opacity="0.3" stroke-width="1.1366" stroke-linecap="round" stroke-linejoin="round"/>
    <path d="M0.937134 85.0227V89.3497H5.16362V93.1739H9.18875V89.3497H13.2139V85.0227H9.18875V81.0981H5.16362V85.0227H0.937134Z" stroke="#FECDD6" stroke-opacity="0.3" stroke-width="1.1366" stroke-linecap="round" stroke-linejoin="round"/>
    <path d="M0.937134 64.8966V69.2236H5.16362V73.0478H9.18875V69.2236H13.2139V64.8966H9.18875V60.972H5.16362V64.8966H0.937134Z" stroke="#FECDD6" stroke-opacity="0.3" stroke-width="1.1366" stroke-linecap="round" stroke-linejoin="round"/>
    <path d="M0.937134 44.7706V49.0979H5.16362V52.9217H9.18875V49.0979H13.2139V44.7706H9.18875V40.8459H5.16362V44.7706H0.937134Z" stroke="#FECDD6" stroke-opacity="0.3" stroke-width="1.1366" stroke-linecap="round" stroke-linejoin="round"/>
    <path d="M0.937134 24.6446V28.9723H5.16362V32.7961H9.18875V28.9723H13.2139V24.6442H9.18875V20.7199H5.16362V24.6446H0.937134Z" stroke="#FECDD6" stroke-opacity="0.3" stroke-width="1.1366" stroke-linecap="round" stroke-linejoin="round"/>
    <path d="M0.937134 4.51851V8.84586H5.16362V12.6696H9.18875V8.84586H13.2139V4.51851H9.18875V0.594238H5.16362V4.51851H0.937134Z" stroke="#FECDD6" stroke-opacity="0.3" stroke-width="1.1366" stroke-linecap="round" stroke-linejoin="round"/>
    <path d="M21.0631 105.149V109.476H25.2896V113.3H29.3144V109.476H33.3395V105.149H29.3147V101.224H25.2896V105.149H21.0631Z" stroke="#FECDD6" stroke-opacity="0.3" stroke-width="1.1366" stroke-linecap="round" stroke-linejoin="round"/>
    <path d="M41.1892 105.149V109.476H45.4157V113.3H49.4408V109.476H53.466V105.149H49.4408V101.224H45.4157V105.149H41.1892Z" stroke="#FECDD6" stroke-opacity="0.3" stroke-width="1.1366" stroke-linecap="round" stroke-linejoin="round"/>
    <path d="M61.3152 105.149V109.476H65.5417V113.3H69.5668V109.476H73.5919V105.149H69.5668V101.224H65.5417V105.149H61.3152Z" stroke="#FECDD6" stroke-opacity="0.3" stroke-width="1.1366" stroke-linecap="round" stroke-linejoin="round"/>
    <path d="M81.4412 105.149V109.476H85.6676V113.3H89.6928V109.476H93.7179V105.149H89.6928V101.224H85.6676V105.149H81.4412Z" stroke="#FECDD6" stroke-opacity="0.3" stroke-width="1.1366" stroke-linecap="round" stroke-linejoin="round"/>
    <path d="M101.567 105.149V109.476H105.794V113.3H109.819V109.476H113.844V105.149H109.819V101.224H105.794V105.149H101.567Z" stroke="#FECDD6" stroke-opacity="0.3" stroke-width="1.1366" stroke-linecap="round" stroke-linejoin="round"/>
    <path d="M21.0631 85.0227V89.3497H25.2896V93.1739H29.3144V89.3497H33.3395V85.0227H29.3147V81.0981H25.2896V85.0227H21.0631Z" stroke="#FECDD6" stroke-opacity="0.3" stroke-width="1.1366" stroke-linecap="round" stroke-linejoin="round"/>
    <path d="M41.1892 85.0227V89.3497H45.4157V93.1739H49.4408V89.3497H53.466V85.0227H49.4408V81.0981H45.4157V85.0227H41.1892Z" stroke="#FECDD6" stroke-opacity="0.3" stroke-width="1.1366" stroke-linecap="round" stroke-linejoin="round"/>
    <path d="M61.3152 85.0227V89.3497H65.5417V93.1739H69.5668V89.3497H73.5919V85.0227H69.5668V81.0981H65.5417V85.0227H61.3152Z" stroke="#FECDD6" stroke-opacity="0.3" stroke-width="1.1366" stroke-linecap="round" stroke-linejoin="round"/>
    <path d="M81.4412 85.0227V89.3497H85.6676V93.1739H89.6928V89.3497H93.7179V85.0227H89.6928V81.0981H85.6676V85.0227H81.4412Z" stroke="#FECDD6" stroke-opacity="0.3" stroke-width="1.1366" stroke-linecap="round" stroke-linejoin="round"/>
    <path d="M101.567 85.0227V89.3497H105.794V93.1739H109.819V89.3497H113.844V85.0227H109.819V81.0981H105.794V85.0227H101.567Z" stroke="#FECDD6" stroke-opacity="0.3" stroke-width="1.1366" stroke-linecap="round" stroke-linejoin="round"/>
    <path d="M21.0631 64.8966V69.2236H25.2896V73.0478H29.3144V69.2236H33.3395V64.8966H29.3147V60.972H25.2896V64.8966H21.0631Z" stroke="#FECDD6" stroke-opacity="0.3" stroke-width="1.1366" stroke-linecap="round" stroke-linejoin="round"/>
    <path d="M41.1892 64.8966V69.2236H45.4157V73.0478H49.4408V69.2236H53.466V64.8966H49.4408V60.972H45.4157V64.8966H41.1892Z" stroke="#FECDD6" stroke-opacity="0.3" stroke-width="1.1366" stroke-linecap="round" stroke-linejoin="round"/>
    <path d="M61.3152 64.8966V69.2236H65.5417V73.0478H69.5668V69.2236H73.5919V64.8966H69.5668V60.972H65.5417V64.8966H61.3152Z" stroke="#FECDD6" stroke-opacity="0.3" stroke-width="1.1366" stroke-linecap="round" stroke-linejoin="round"/>
    <path d="M81.4412 64.8966V69.2236H85.6676V73.0478H89.6928V69.2236H93.7179V64.8966H89.6928V60.972H85.6676V64.8966H81.4412Z" stroke="#FECDD6" stroke-opacity="0.3" stroke-width="1.1366" stroke-linecap="round" stroke-linejoin="round"/>
    <path d="M101.567 64.8966V69.2236H105.794V73.0478H109.819V69.2236H113.844V64.8966H109.819V60.972H105.794V64.8966H101.567Z" stroke="#FECDD6" stroke-opacity="0.3" stroke-width="1.1366" stroke-linecap="round" stroke-linejoin="round"/>
    <path d="M21.0631 44.7706V49.0979H25.2896V52.9217H29.3144V49.0979H33.3395V44.7706H29.3147V40.8459H25.2896V44.7706H21.0631Z" stroke="#FECDD6" stroke-opacity="0.3" stroke-width="1.1366" stroke-linecap="round" stroke-linejoin="round"/>
    <path d="M41.1892 44.7706V49.0979H45.4157V52.9217H49.4408V49.0979H53.466V44.7706H49.4408V40.8459H45.4157V44.7706H41.1892Z" stroke="#FECDD6" stroke-opacity="0.3" stroke-width="1.1366" stroke-linecap="round" stroke-linejoin="round"/>
    <path d="M61.3152 44.7706V49.0979H65.5417V52.9217H69.5668V49.0979H73.5919V44.7706H69.5668V40.8459H65.5417V44.7706H61.3152Z" stroke="#FECDD6" stroke-opacity="0.3" stroke-width="1.1366" stroke-linecap="round" stroke-linejoin="round"/>
    <path d="M81.4412 44.7706V49.0979H85.6676V52.9217H89.6928V49.0979H93.7179V44.7706H89.6928V40.8459H85.6676V44.7706H81.4412Z" stroke="#FECDD6" stroke-opacity="0.3" stroke-width="1.1366" stroke-linecap="round" stroke-linejoin="round"/>
    <path d="M101.567 44.7706V49.0979H105.794V52.9217H109.819V49.0979H113.844V44.7706H109.819V40.8459H105.794V44.7706H101.567Z" stroke="#FECDD6" stroke-opacity="0.3" stroke-width="1.1366" stroke-linecap="round" stroke-linejoin="round"/>
    <path d="M21.0631 24.6446V28.9723H25.2896V32.7961H29.3144V28.9723H33.3395V24.6442H29.3147V20.7199H25.2896V24.6446H21.0631Z" stroke="#FECDD6" stroke-opacity="0.3" stroke-width="1.1366" stroke-linecap="round" stroke-linejoin="round"/>
    <path d="M41.1892 24.6446V28.9723H45.4157V32.7961H49.4408V28.9723H53.466V24.6442H49.4408V20.7199H45.4157V24.6446H41.1892Z" stroke="#FECDD6" stroke-opacity="0.3" stroke-width="1.1366" stroke-linecap="round" stroke-linejoin="round"/>
    <path d="M61.3152 24.6446V28.9723H65.5417V32.7961H69.5668V28.9723H73.5919V24.6442H69.5668V20.7199H65.5417V24.6446H61.3152Z" stroke="#FECDD6" stroke-opacity="0.3" stroke-width="1.1366" stroke-linecap="round" stroke-linejoin="round"/>
    <path d="M81.4412 24.6446V28.9723H85.6676V32.7961H89.6928V28.9723H93.7179V24.6442H89.6928V20.7199H85.6676V24.6446H81.4412Z" stroke="#FECDD6" stroke-opacity="0.3" stroke-width="1.1366" stroke-linecap="round" stroke-linejoin="round"/>
    <path d="M101.567 24.6446V28.9723H105.794V32.7961H109.819V28.9723H113.844V24.6442H109.819V20.7199H105.794V24.6446H101.567Z" stroke="#FECDD6" stroke-opacity="0.3" stroke-width="1.1366" stroke-linecap="round" stroke-linejoin="round"/>
    <path d="M21.0631 4.51851V8.84586H25.2896V12.6696H29.3144V8.84586H33.3395V4.51851H29.3147V0.594238H25.2896V4.51851H21.0631Z" stroke="#FECDD6" stroke-opacity="0.3" stroke-width="1.1366" stroke-linecap="round" stroke-linejoin="round"/>
    <path d="M41.1892 4.51851V8.84586H45.4157V12.6696H49.4408V8.84586H53.466V4.51851H49.4408V0.594238H45.4157V4.51851H41.1892Z" stroke="#FECDD6" stroke-opacity="0.3" stroke-width="1.1366" stroke-linecap="round" stroke-linejoin="round"/>
    <path d="M61.3152 4.51851V8.84586H65.5417V12.6696H69.5668V8.84586H73.5919V4.51851H69.5668V0.594238H65.5417V4.51851H61.3152Z" stroke="#FECDD6" stroke-opacity="0.3" stroke-width="1.1366" stroke-linecap="round" stroke-linejoin="round"/>
    <path d="M81.4412 4.51851V8.84586H85.6676V12.6696H89.6928V8.84586H93.7179V4.51851H89.6928V0.594238H85.6676V4.51851H81.4412Z" stroke="#FECDD6" stroke-opacity="0.3" stroke-width="1.1366" stroke-linecap="round" stroke-linejoin="round"/>
    <path d="M101.567 4.51851V8.84586H105.794V12.6696H109.819V8.84586H113.844V4.51851H109.819V0.594238H105.794V4.51851H101.567Z" stroke="#FECDD6" stroke-opacity="0.3" stroke-width="1.1366" stroke-linecap="round" stroke-linejoin="round"/>
  </g>
  <defs>
    <clipPath id="clip0_739_852">
      <rect width="113.66" height="113.66" fill="white" transform="translate(0.560669 0.117065)"/>
    </clipPath>
  </defs>
</svg>